<svg width="36px" height="48px"  viewBox="0 0 24 24" fill="none" xmlns="http://www.w3.org/2000/svg">
  <rect width="24" height="24" fill="white" rx="4"/>
  <path d="M22 16.92V20C22 20.55 21.55 21 21 21C16.16 21 11.67 18.94 8.49 15.76C5.31 12.58 3.25 8.09 3.25 3.25C3.25 2.7 3.7 2.25 4.25 2.25H7.34C7.77 2.25 8.14 2.55 8.25 2.97C8.53 4.07 8.93 5.1 9.43 6.04C9.58 6.34 9.53 6.72 9.29 6.96L7.35 8.9C8.81 11.61 11.39 14.19 14.1 15.65L16.04 13.71C16.27 13.47 16.65 13.42 16.95 13.57C17.89 14.07 18.93 14.47 20.03 14.75C20.45 14.86 20.75 15.23 20.75 15.66V18.75C20.75 19.3 20.3 19.75 19.75 19.75H16.92C16.38 19.75 15.92 19.3 15.92 18.75V16.92C15.92 16.38 16.38 15.92 16.92 15.92H19.75C20.3 15.92 20.75 16.38 20.75 16.92Z" fill="currentColor"/>
</svg>
